<?xml version="1.0" encoding="utf-8" ?>
<svg xmlns="http://www.w3.org/2000/svg" xmlns:xlink="http://www.w3.org/1999/xlink" width="724" height="218">
	<path fill="white" d="M460.697 140.092Q460.984 140.052 461.273 140.033C462.486 139.956 463.595 140.397 464.502 141.195C466.404 142.872 475.312 154.891 475.442 157.212C478.735 154.891 483.062 144.711 487.294 140.967C488.225 140.143 488.83 140.035 490.062 140.113L490.449 140.655C490.164 142.48 485.059 149.672 483.388 151.038C483.38 151.175 483.383 151.181 483.357 151.334C483.115 152.762 478.317 158.986 477.107 159.853C477.272 160.236 477.424 160.615 477.509 161.025C477.897 162.886 477.969 173.409 477.047 174.734C476.295 174.977 475.738 175.08 474.948 175.02C473.042 171.673 475.05 164.205 474.077 160.141L474.053 160.045C474.096 158.967 462.352 143.087 460.697 140.092Z"/>
	<path fill="white" d="M653.926 140.092C655.099 139.93 656.101 140.015 657.114 140.687C659.545 142.301 668.134 154.464 668.633 157.116C671.059 155.765 676.131 146.014 678.428 143.149C679.528 141.775 681.261 139.805 683.076 139.599L683.318 140.357C682.758 143.877 678.888 148.793 676.423 151.346C676.424 151.418 676.432 151.551 676.415 151.631C676.123 152.976 671.601 158.941 670.441 159.704C671.335 161.464 670.849 169.81 670.832 172.463C670.826 173.407 671.016 174.075 670.327 174.757C669.422 174.913 669.057 175.042 668.205 174.71C666.013 172.07 668.153 163.742 667.163 160.168C667.154 160.133 667.143 160.098 667.133 160.064C667.217 158.625 655.51 143.045 653.926 140.092Z"/>
	<path fill="white" d="M275.369 140.091C276.382 140.087 277.239 140.201 278.218 140.462C278.686 140.781 278.966 141.133 279.228 141.632C281.83 146.604 283.664 152.359 285.736 157.59C287.243 161.398 289.367 165.556 290.3 169.527C290.477 170.281 290.378 170.961 290.144 171.694C290.684 171.169 291.251 170.577 291.608 169.909C293.322 166.696 294.46 162.748 295.76 159.332C297.31 155.265 299.068 151.285 300.638 147.243C301.412 145.251 301.924 142.52 303.308 140.879C303.955 140.111 304.542 140.029 305.468 139.938C306.243 140.397 306.323 140.41 306.587 141.276C306.323 142.277 305.871 142.855 305.212 143.624C305.223 143.669 305.237 143.712 305.246 143.757C305.597 145.529 294.475 171.479 292.445 174.597L292.507 174.408L291.981 175.05C291.887 175.058 291.732 175.075 291.631 175.074C290.851 175.071 289.817 174.97 289.257 174.374C287.922 172.955 275.332 141.606 275.369 140.091Z"/>
	<path fill="white" d="M342.751 140.445C347.254 139.795 359.652 140.178 364.553 140.478C365.03 140.938 364.996 140.946 365.024 141.613C364.885 141.831 364.734 142.024 364.529 142.183C362.294 143.919 348.822 143.026 345.499 142.754C345.707 143.081 345.88 143.43 345.963 143.811C346.457 146.071 346.656 153.702 345.365 155.533C351.003 155.72 356.842 155.402 362.438 155.818C363.484 155.896 364.155 156.077 364.84 156.873L364.587 157.679C362.998 158.834 350.504 158.39 347.771 158.405L346.621 158.456C344.484 161.25 347.611 168.706 345.438 172.069C348.986 172.071 362.234 171.484 364.582 172.457C364.898 173.127 364.848 173.503 364.7 174.214C362.644 175.322 346.034 174.743 341.988 174.858C343.694 172.387 343.024 145.267 342.751 140.445Z"/>
	<path fill="white" d="M218.119 140.182C223.211 140.481 235.417 139.582 239.167 140.522C239.979 140.725 240.301 140.866 240.736 141.583C240.645 141.8 240.503 142.284 240.331 142.42C238.783 143.641 223.771 143.043 220.801 142.84C221.058 143.218 221.322 143.675 221.429 144.125C222.043 146.715 222.25 153.566 220.941 155.627C224.176 155.732 238.111 155.134 239.91 156.255C239.977 157.226 240.059 157.324 239.426 158.065C237.234 158.903 226.362 158.372 223.334 158.403C223.045 158.377 222.633 158.305 222.351 158.365C220.658 158.726 222.372 169.555 220.826 172.087C223.713 172.067 238.833 171.344 240.659 173.002C240.646 173.299 240.647 173.406 240.431 173.627C239.999 174.068 239.152 174.445 238.549 174.542C236.476 174.874 234.064 174.638 231.957 174.65C227.341 174.675 222.726 174.681 218.119 174.991C218.786 163.562 218.734 151.614 218.119 140.182Z"/>
	<path fill="white" d="M603.346 140.445C604.325 140.264 605.536 139.935 606.477 140.365C606.52 140.385 606.563 140.406 606.606 140.426C606.843 140.535 607.054 140.64 607.25 140.818C608.21 141.689 620.63 171.584 620.753 173.679C620.798 174.451 620.719 174.595 620.213 175.169C616.01 175.2 616.363 168.531 613.94 166.2C613.918 166.179 613.895 166.159 613.873 166.138C611.314 166.198 608.75 166.193 606.191 166.216Q601.104 166.305 596.019 166.126C596.125 166.578 596.043 166.972 595.951 167.421C595.456 169.838 594.323 173.032 592.096 174.384C591.396 174.809 591.159 174.843 590.379 174.63C590.051 173.864 590.175 173.175 590.405 172.402C591.389 169.091 593.133 165.704 594.457 162.492Q599.049 151.528 603.346 140.445ZM605.109 144.332C604.039 147.814 599.142 161.832 596.753 163.671Q601.118 163.614 605.484 163.61C607.99 163.593 610.641 163.398 613.122 163.767C613.347 162.728 607.197 147.099 605.981 145.02C605.739 144.606 605.571 144.454 605.109 144.332Z"/>
	<path fill="white" d="M402.843 140.445Q402.969 140.424 403.096 140.408C408.384 139.728 418.672 139.489 422.986 142.835Q423.363 143.124 423.71 143.449Q424.057 143.775 424.369 144.133Q424.681 144.491 424.956 144.879Q425.231 145.266 425.466 145.68Q425.701 146.093 425.893 146.527Q426.086 146.962 426.234 147.413Q426.382 147.865 426.484 148.329Q426.586 148.793 426.641 149.265Q426.695 149.74 426.701 150.218Q426.708 150.695 426.667 151.171Q426.627 151.647 426.54 152.117Q426.453 152.587 426.32 153.046Q426.187 153.505 426.009 153.949Q425.832 154.392 425.612 154.816Q425.392 155.24 425.131 155.641Q424.87 156.041 424.571 156.414C422.397 159.144 419.664 159.979 416.32 160.358Q417.455 161.232 418.33 162.366C420.226 164.822 426.141 171.836 425.784 174.665L425.031 174.914C423.74 174.816 422.897 174.209 421.852 173.516C421.847 173.477 421.843 173.438 421.837 173.399C421.577 171.886 414.45 161.331 413.184 160.361C410.62 160.507 408.05 160.416 405.484 160.364C405.769 160.792 405.998 161.304 406.114 161.806C406.772 164.661 407.043 171.898 405.511 174.447C404.802 174.917 404.693 174.998 403.85 174.874C401.988 172.276 403.355 145.858 402.843 140.445ZM406.136 142.919C406.307 146.906 407.433 154.408 405.601 157.88C408.771 157.908 418.041 158.788 420.158 156.441C420.295 156.289 420.347 156.178 420.427 155.992C421.793 155.229 422.471 154.014 422.894 152.546C423.453 150.603 423.183 148.346 422.199 146.582C421.698 145.683 420.86 144.684 419.945 144.204C416.504 142.058 410.108 143.017 406.136 142.919Z"/>
	<path fill="white" d="M525.811 140.445C530.541 139.689 538.791 140.012 543.378 141.269C547.275 142.337 550.533 145.097 552.507 148.596C554.921 152.877 555.469 158.287 554.137 163C553.427 165.51 551.688 168.824 549.333 170.125C549.256 170.338 549.166 170.469 549.011 170.634C544.009 175.967 532.197 174.693 525.515 174.998C525.537 174.961 525.56 174.925 525.581 174.888C526.912 172.527 526.79 143.78 525.811 140.445ZM529.682 142.919C528.505 148.478 531.272 168.566 528.821 172.077C534.307 172.124 542.468 172.989 546.661 168.792C546.829 168.624 546.917 168.41 546.983 168.186C549.493 166.329 550.86 163.124 551.297 160.111C551.909 155.893 551.02 151.562 548.436 148.129C546.246 145.22 543.204 143.628 539.63 143.156C536.358 142.724 532.978 143.058 529.682 142.919Z"/>
	<path fill="white" d="M479.795 60.5946Q480.367 60.5074 480.942 60.4395C483.481 60.1448 486.067 60.8121 488.082 62.4249C490.91 64.6877 490.349 66.7632 490.695 69.8951L491.109 69.799C491.587 68.8676 492.071 67.9346 492.6 67.0308C494.247 64.2153 496.561 61.3641 499.873 60.5378Q500.258 60.4401 500.651 60.3812Q501.043 60.3224 501.44 60.303Q501.837 60.2837 502.234 60.304Q502.63 60.3243 503.023 60.3841Q503.415 60.4439 503.8 60.5425Q504.185 60.6412 504.558 60.7777Q504.931 60.9143 505.288 61.0874Q505.646 61.2604 505.984 61.4683Q506.346 61.6856 506.684 61.938Q507.023 62.1904 507.334 62.4754Q507.646 62.7603 507.927 63.0751Q508.208 63.3898 508.457 63.7311Q508.705 64.0723 508.918 64.4368Q509.131 64.8012 509.306 65.1851Q509.482 65.569 509.618 65.9685Q509.754 66.368 509.849 66.7791C510.653 70.2542 508.944 73.459 505.964 75.2861C503.336 76.8979 500.233 77.2978 497.62 79.1482C489.03 85.2305 493.021 93.4676 490.372 97.6898C490.407 97.7496 490.442 97.8086 490.475 97.8692C491.659 100.049 491.159 111.25 490.422 113.866C489.832 115.959 488.08 117.633 486.224 118.669C484.388 119.693 482.342 119.973 480.314 119.396C478.067 118.756 476.144 117.106 475.035 115.065C474.315 113.739 474.199 112.408 474.092 110.925C473.754 106.264 473.438 69.3432 474.442 66.1244C475.343 63.2357 477.221 61.9657 479.795 60.5946Z"/>
	<path fill="white" d="M110.077 61.8101C117.503 54.0632 124.38 46.029 129.134 36.2947C131.926 30.5771 134.822 19.8843 138.73 15.4807C141.001 12.921 144.417 11.9847 147.744 11.9036C150.699 11.8317 153.695 12.5973 155.879 14.6793C159.033 17.6862 160.565 22.0393 160.63 26.3352C160.778 36.0735 148.924 53.4086 142.824 60.7575C139.238 65.0778 135.148 69.0462 131.236 73.0696L130.767 72.7965C130.71 72.385 130.59 72.0032 130.468 71.6071C129.311 72.2376 128.502 73.042 127.169 72.976C125.919 71.9055 126.151 70.8147 125.788 69.311C125.466 67.9728 122.896 67.71 121.931 66.48C120.486 64.638 119.329 61.1286 117.258 59.9936C114.916 58.7106 112.814 61.7414 110.619 62.3917L110.077 61.8101Z"/>
	<path fill="white" d="M372.38 46.1081C374.672 45.7121 376.748 45.6842 378.869 46.739C381.096 47.8468 382.694 49.6533 383.476 52.0171C384.264 54.3963 384.398 58.8976 383.259 61.1662L388.672 61.1338C391.242 61.1421 393.854 61.366 395.749 63.3073Q395.994 63.5599 396.212 63.8356Q396.43 64.1113 396.62 64.4074Q396.81 64.7035 396.969 65.0171Q397.128 65.3307 397.255 65.6585Q397.382 65.9864 397.476 66.3253Q397.569 66.6642 397.629 67.0107Q397.688 67.3573 397.712 67.708Q397.737 68.0588 397.726 68.4102Q397.717 68.7698 397.673 69.1267Q397.628 69.4837 397.548 69.8344Q397.468 70.185 397.353 70.5259Q397.238 70.8668 397.09 71.1944Q396.941 71.5221 396.761 71.8332Q396.58 72.1443 396.369 72.4357Q396.158 72.7272 395.919 72.996Q395.68 73.2649 395.415 73.5084C392.346 76.3379 387.076 75.5972 383.236 75.424C384.633 80.8325 383.574 91.6964 383.613 97.7209C383.692 110.162 391.621 101.868 396.296 107.78C397.218 108.947 397.599 110.916 397.399 112.362C397.552 112.796 397.555 113.134 397.433 113.578C396.993 115.187 396.146 116.272 394.71 117.126C394.694 117.17 394.679 117.215 394.66 117.258C394.463 117.706 393.662 118.109 393.232 118.298C388.074 120.566 380.858 120.693 375.619 118.643C372.168 117.293 369.635 114.761 368.215 111.342C365.423 104.62 366.559 87.2366 366.645 79.3098C366.649 78.9633 366.794 76.2956 366.687 76.1567C365.562 74.6917 361.312 74.5263 359.634 70.5112C358.941 68.8528 359.108 66.8093 359.83 65.1765C360.933 62.6801 363.972 61.6953 366.342 60.8163C366.973 57.9865 366.341 54.9114 367.06 52.0448C367.812 49.0494 369.859 47.6173 372.38 46.1081Z"/>
	<path fill="white" d="M328.009 46.1084C330.177 45.821 331.993 45.5847 334.045 46.473C336.349 47.4709 338.127 49.246 339.039 51.5962C340.041 54.1793 340.316 58.7827 339.187 61.3448C341.227 61.1465 343.403 61.0167 345.453 61.1383C347.959 61.287 350.601 62.2752 352.278 64.2012C353.34 65.4217 353.97 66.9713 353.834 68.6059C353.678 70.4745 352.602 72.1033 351.177 73.2731C347.708 76.1226 343.175 75.7303 339.001 75.3343C339.091 75.547 339.162 75.7626 339.234 75.9818C341.291 82.2764 337.522 99.4203 340.56 103.8C341.555 105.234 344.74 105.198 346.28 105.429C348.484 105.759 351.335 106.31 352.707 108.27C353.706 109.696 353.518 111.431 353.247 113.05C352.965 114.735 352.336 115.761 350.916 116.773C350.804 116.977 350.685 117.165 350.531 117.341C348.827 119.282 343.926 119.81 341.46 119.954C336.614 120.238 331.152 119.667 327.398 116.281C325.171 114.272 323.869 111.516 323.182 108.635C321.153 100.133 322.836 85.4001 322.404 75.972L320.588 75.1424C318.36 74.1136 316.101 72.7087 315.25 70.2697C314.673 68.613 314.982 66.4312 315.74 64.8617C316.894 62.4725 319.871 61.6336 322.184 60.8168C322.826 58.0848 322.166 55.0326 322.771 52.247C323.441 49.1627 325.472 47.7104 328.009 46.1084Z"/>
	<path fill="white" d="M568.527 74.1451C570.323 72.0623 571.79 69.487 573.353 67.2095L583.153 52.972C584.992 50.3084 586.799 47.2906 589.22 45.1207C591.221 43.3272 593.723 42.1043 596.466 42.2734C598.605 42.4053 600.538 43.4763 601.94 45.0741C603.423 46.7632 604.064 49.0948 603.93 51.3127C603.829 52.9994 603.001 54.5003 602.166 55.9324C599.78 60.0247 588.435 75.837 585.299 78.6145C585.298 78.6928 585.304 78.8353 585.283 78.9203C584.946 80.2921 578.59 88.4162 577.302 89.4292C578.303 92.7745 577.838 111.319 576.612 114.455C575.731 116.708 574.046 118.883 571.772 119.85C569.876 120.657 567.688 120.508 565.799 119.747C563.882 118.976 561.936 117.387 561.042 115.496C558.901 110.966 560.417 100.074 560.215 94.7535C560.16 93.3135 560.201 91.5117 559.592 90.1875C559.562 90.1217 559.529 90.0572 559.497 89.992C559.6 87.3858 536.921 60.4804 534.119 53.71C533.302 51.7361 533.225 49.5751 534.079 47.5903C535.237 44.8999 537.809 43.5824 540.387 42.5752L540.558 42.5502C542.54 42.2764 545.486 42.633 547.101 43.8855C549.87 46.0331 568.24 71.7028 568.527 74.1451Z"/>
	<path fill="white" d="M713.683 120.154C712.27 119.006 710.528 118.542 709.189 117.158C707.868 115.793 707.086 114.03 707.138 112.13L707.143 111.999C707.029 111.925 706.937 111.78 706.802 111.778C706.797 111.778 706.547 112.078 706.511 112.12Q704.998 113.886 703.29 115.465C700.221 118.258 696.833 119.742 692.72 120.28C687.762 120.928 682.011 119.642 678.04 116.537C673.657 113.109 671.485 107.892 670.84 102.488C670.112 96.3864 670.54 89.907 670.515 83.7492C670.495 78.7792 669.97 73.1844 670.709 68.2921C671.015 66.2655 671.709 64.283 672.999 62.6678C674.178 61.1931 675.732 60.2513 677.627 60.0606C680.095 59.8121 682.639 60.6705 684.549 62.2261C685.576 63.0633 686.477 64.1699 686.893 65.4403C689.099 72.1743 686.956 88.9839 687.834 97.1574Q687.879 97.5947 687.968 98.0253Q688.056 98.456 688.186 98.8759Q688.316 99.2958 688.487 99.7009Q688.658 100.106 688.868 100.492Q689.078 100.879 689.325 101.242Q689.572 101.606 689.853 101.944Q690.135 102.282 690.448 102.59Q690.762 102.899 691.104 103.175C692.984 104.663 695.49 105.297 697.858 104.99C699.736 104.746 701.86 104.351 703.333 103.083C711.22 96.2903 703.631 69.8286 708.745 63.2058C710.058 61.5048 712.068 60.4712 714.183 60.2003C716.457 59.909 718.89 60.5096 720.704 61.9288C722.227 63.1198 723.366 64.8487 723.603 66.7785L723.912 66.7785C724.206 75.2316 724.013 83.7429 724.012 92.2023C724.012 99.1369 724.265 106.182 723.9 113.104L723.6 113.104C723.566 114.634 722.514 116.182 721.496 117.269C719.359 119.55 716.657 120.044 713.683 120.154ZM723.603 66.7785L723.52 98.2505C723.517 103.175 723.778 108.192 723.6 113.104L723.9 113.104C724.265 106.182 724.012 99.1369 724.012 92.2023C724.013 83.7429 724.206 75.2316 723.912 66.7785L723.603 66.7785Z"/>
	<path fill="white" d="M723.603 66.7785L723.912 66.7785C724.206 75.2316 724.013 83.7429 724.012 92.2023C724.012 99.1369 724.265 106.182 723.9 113.104L723.6 113.104C723.778 108.192 723.517 103.175 723.52 98.2505L723.603 66.7785Z"/>
	<path fill="white" d="M275.9 60.2407C277.329 60.1131 278.788 60.0942 280.223 60.0802C287.312 60.0107 294.161 62.4533 299.24 67.463C304.144 72.3002 307.716 79.8781 307.748 86.863C307.759 89.3719 307.154 91.9443 305.319 93.7616C304.189 94.8798 302.735 95.4558 301.192 95.7411C297.174 96.4843 292.686 96.1036 288.591 96.0968L267.095 96.0371C268.796 97.3855 270.217 101.52 272.558 103.633C274.644 105.517 276.883 106.379 279.677 106.567C288.139 107.138 292.174 101.605 297.433 101.477C298.522 101.451 299.607 101.899 300.395 102.64C300.619 102.74 300.838 102.845 301.048 102.973C302.259 103.711 303.586 105.431 303.892 106.822C304.237 108.392 303.618 109.975 302.756 111.27C299.782 115.739 293.428 118.579 288.321 119.57C279.953 121.193 270.644 119.725 263.539 114.902C257.395 110.731 253.144 103.99 251.756 96.7221C250.149 88.3117 251.808 79.0248 256.648 71.9243C261.37 64.9959 267.874 61.7431 275.9 60.2407ZM277.304 73.6671C272.196 75.5865 270.68 78.0527 268.373 82.8108C267.872 83.8458 267.579 84.698 266.678 85.4722L280.957 85.4715C284.401 85.4508 287.92 85.2726 291.357 85.4279C291.635 83.0353 290.282 79.861 288.82 78.0026C286.913 75.5773 284.03 73.8823 280.948 73.5498C279.749 73.4205 278.501 73.5578 277.304 73.6671Z"/>
	<path fill="white" d="M430.155 60.2413C437.693 59.7205 444.807 60.6727 451.046 65.2954C457.038 69.7345 460.561 76.6972 461.64 83.9685C462.084 86.9615 462.334 89.9703 460.435 92.5182C460.295 92.8928 460.116 93.1857 459.843 93.4777C458.73 94.6659 457.421 95.2637 455.85 95.6033C451.693 96.5023 446.989 96.0947 442.751 96.0854Q432.097 96.0014 421.442 96.0868C424.679 99.0301 423.345 102.543 429.593 105.378C437.782 109.093 443.612 103.996 450.817 101.254C452.139 101.445 453.852 101.699 454.739 102.732C455.146 102.905 455.563 103.089 455.937 103.326C456.971 103.98 457.525 105.263 457.768 106.424C458.171 108.354 457.822 110.173 456.725 111.813C453.956 115.95 447.32 118.643 442.528 119.594C434.13 121.261 424.829 119.648 417.712 114.83C411.5 110.626 407.358 103.797 405.981 96.4772C404.414 88.1528 406.157 78.7172 410.983 71.7103C415.732 64.8161 422.144 61.7181 430.155 60.2413ZM431.667 73.6677C426.401 75.5661 424.88 78.2493 422.6 83.1135C422.22 83.9235 421.936 84.8646 421.23 85.4489L435.089 85.4707C438.527 85.4545 442.104 85.2245 445.525 85.4597C445.814 82.8942 444.628 79.8512 443.029 77.8631C441.2 75.5903 438.307 73.8867 435.386 73.5667C434.17 73.4335 432.884 73.5738 431.667 73.6677Z"/>
	<path fill="white" d="M78.4215 1.12867Q79.1314 1.0619 79.8437 1.0279Q80.556 0.993907 81.269 0.99276Q81.9821 0.991612 82.6945 1.02332Q83.4069 1.05502 84.117 1.11951Q84.8271 1.18399 85.5336 1.28112Q86.24 1.37826 86.9412 1.50783Q87.6424 1.6374 88.3368 1.79914Q89.0313 1.96088 89.7176 2.15443Q90.4039 2.34799 91.0805 2.57296Q91.7571 2.79792 92.4226 3.05382Q93.0881 3.30972 93.7411 3.596Q94.3942 3.88229 95.0333 4.19835Q95.6724 4.51441 96.2963 4.85958Q96.9201 5.20475 97.5274 5.57829Q98.1347 5.95183 98.7241 6.35295Q99.3135 6.75407 99.8838 7.18192C106.013 11.7567 110.078 20.1266 111.126 27.5848Q111.232 28.3057 111.302 29.0309Q111.373 29.7561 111.408 30.4838Q111.442 31.2116 111.441 31.9402Q111.44 32.6688 111.403 33.3965Q111.366 34.1242 111.294 34.8491Q111.221 35.5741 111.113 36.2947Q111.005 37.0152 110.861 37.7296Q110.718 38.4439 110.54 39.1504Q110.361 39.8568 110.148 40.5537Q109.935 41.2505 109.689 41.9361Q109.442 42.6217 109.161 43.2943Q108.881 43.9669 108.568 44.6249Q108.255 45.2829 107.91 45.9248Q107.565 46.5667 107.189 47.1909Q106.813 47.815 106.407 48.42Q106.001 49.0249 105.565 49.6092C100.467 56.3457 93.367 61.1492 84.9215 62.3443C84.8125 62.3809 84.7034 62.4176 84.5926 62.4484C79.7375 63.8019 71.274 61.3996 67.0658 58.9732C60.412 55.1367 55.2847 48.3133 53.3513 40.9141C51.0752 32.2029 52.7639 23.0447 57.3139 15.3562C62.2467 7.02062 69.4185 3.45226 78.4215 1.12867Z"/>
	<path fill="white" d="M624.437 59.8883L624.569 59.8716C632.795 58.8621 641.726 61.3123 648.226 66.4386C654.25 71.1892 658.281 78.7293 659.148 86.3239C660.08 94.497 657.905 102.586 652.744 109.043C647.061 116.153 639.152 119.496 630.308 120.456Q630.04 120.479 629.772 120.497C621.577 121.039 612.716 118.204 606.569 112.768Q606.019 112.28 605.494 111.767Q604.968 111.253 604.469 110.714Q603.969 110.175 603.496 109.612Q603.023 109.049 602.579 108.464Q602.134 107.879 601.719 107.273Q601.304 106.666 600.919 106.041Q600.533 105.415 600.179 104.771Q599.825 104.127 599.503 103.466Q599.181 102.806 598.891 102.131Q598.602 101.455 598.346 100.766Q598.09 100.078 597.868 99.3772Q597.646 98.6767 597.459 97.9662Q597.271 97.2558 597.119 96.537Q596.966 95.8182 596.849 95.0928Q596.732 94.3674 596.651 93.6372Q596.57 92.9069 596.524 92.1736C596.043 84.1384 598.748 75.7946 604.135 69.7781C609.088 64.2462 616.95 60.2821 624.437 59.8883ZM626.49 74.3743C622.209 75.0736 618.775 76.6296 616.183 80.2348C613.634 83.7796 612.635 88.4708 613.345 92.7599C614.032 96.9144 616.135 100.771 619.616 103.224C621.887 104.825 625.393 106.125 628.201 105.958C632.519 105.573 636.047 104.287 638.93 100.866C641.87 97.3778 642.822 92.574 642.418 88.1139C642.05 84.0418 640.143 80.1417 636.956 77.5333C634.112 75.2048 630.258 73.994 626.586 74.364L626.49 74.3743Z"/>
	<path fill="white" d="M185.593 43.9103C190.882 43.4516 196.441 43.7775 201.759 43.7748C207.779 43.7717 214.09 43.3282 220.059 44.125C222.96 44.5122 225.87 45.3136 228.512 46.5835C232.912 48.6987 236.582 52.2647 238.209 56.93C239.766 61.3954 239.488 67.2662 237.395 71.5188C235.668 75.0301 232.768 78.1013 229.018 79.3766C233.552 80.772 237.761 83.3423 240.426 87.3508C243.346 91.7438 244.088 97.3403 243.06 102.456C242.49 105.286 240.892 109.22 238.395 110.869C238.382 110.935 238.372 111.002 238.355 111.068C238.08 112.189 235.422 113.976 234.466 114.55C231.232 116.492 227.171 117.643 223.46 118.231C218.205 119.064 189.332 119.555 185.053 118.424C183.514 118.018 181.021 116.563 180.266 115.127C179.45 113.575 179.338 110.857 179.244 109.095C178.867 101.986 178.568 51.6878 179.794 48.5145C180.705 46.1552 183.437 44.8379 185.593 43.9103ZM195.536 87.9512C196.053 93.2011 196.095 98.8423 195.758 104.108C200.718 104.126 220.545 105.155 223.163 102.224C223.239 102.139 223.29 102.031 223.345 101.933C225.159 100.928 225.726 99.7996 226.276 97.8538C226.802 95.9915 226.943 94.1289 225.939 92.3819C224.735 90.2884 222.127 89.1487 219.888 88.5939C212.649 86.8 203.161 88.4547 195.536 87.9512ZM195.588 58.575C196.266 63.237 196.347 69.4415 195.491 74.091C199.913 73.8062 216.219 75.0741 218.79 71.9203C218.874 71.8168 218.876 71.7997 218.923 71.6946C220.291 71.0952 221.313 70.192 221.862 68.7785C222.241 67.8009 222.394 66.654 222.006 65.6619C222.303 64.434 222.02 63.2513 221.375 62.1772C220.307 60.3984 218.024 59.5507 216.097 59.1224C209.528 57.6629 202.281 59.2119 195.588 58.575Z"/>
	<path fill="white" d="M65.6691 185.099C74.6962 188.148 88.2579 184.865 94.7609 192.034Q95.2561 192.587 95.6944 193.186Q96.1327 193.785 96.5098 194.425Q96.8869 195.064 97.1992 195.737Q97.5116 196.41 97.756 197.111Q98.0005 197.812 98.1747 198.533Q98.349 199.255 98.4513 199.99Q98.5536 200.725 98.583 201.467Q98.6124 202.208 98.5686 202.949Q98.5376 203.7 98.432 204.444Q98.3265 205.188 98.1473 205.918Q97.9682 206.648 97.7174 207.357Q97.4665 208.065 97.1464 208.745Q96.8263 209.425 96.44 210.07Q96.0538 210.715 95.6053 211.319Q95.1569 211.922 94.6506 212.478Q94.1443 213.033 93.5852 213.536C89.5956 217.118 84.7171 217.281 79.622 217.029C70.5975 216.582 46.0281 215.6 38.5403 212.857C36.0303 211.937 33.8395 210.284 32.0622 208.303C20.8511 195.805 32.0795 182.327 39.7992 171.937C43.0971 167.499 46.5382 162.723 49.1268 157.832C53.0283 150.462 54.8206 142.602 55.2508 134.325C55.6681 126.297 55.3642 118.837 53.8747 110.931C52.7318 104.864 50.673 98.5334 47.4 93.2621C43.7536 87.3895 38.2961 82.5369 33.4033 77.7256C28.6226 73.0246 23.7813 68.2209 19.2955 63.2415C12.517 55.717 0.410524 42.6786 0.998471 32.2345C1.22688 28.177 3.05307 23.9494 6.12252 21.2242C8.60492 19.0203 12.0563 17.9354 15.3576 18.1472C18.329 18.3379 21.591 19.6949 23.6675 21.8569C27.2265 25.5622 29.0452 31.7923 31.6526 36.2642C35.1976 42.3443 39.7157 48.2253 44.3693 53.4961C52.3696 62.5574 68.4622 73.8777 80.8997 74.6047C92.4805 75.2817 101.763 69.1901 110.077 61.8101L110.619 62.3917C112.814 61.7414 114.916 58.7106 117.258 59.9936C119.329 61.1286 120.486 64.638 121.931 66.48C122.896 67.71 125.466 67.9728 125.788 69.311C126.151 70.8147 125.919 71.9055 127.169 72.976C128.502 73.042 129.311 72.2376 130.468 71.6071C130.59 72.0032 130.71 72.385 130.767 72.7965L131.236 73.0696C128.087 76.489 124.354 80.4357 121.713 84.2394C115.98 92.4945 112.498 103.691 112.341 113.729C111.982 136.592 123.293 153.629 138.583 169.406C139.573 169.697 140.79 170.145 141.827 170.101C149.162 169.788 160.832 161.293 169.119 160.012C172.4 159.504 175.364 160.1 178.048 162.102C181.378 164.585 183.728 168.788 184.299 172.881Q184.401 173.606 184.432 174.337Q184.462 175.069 184.421 175.8Q184.379 176.53 184.266 177.254Q184.153 177.977 183.969 178.686Q183.786 179.394 183.533 180.082Q183.281 180.769 182.962 181.428Q182.643 182.087 182.261 182.711Q181.879 183.336 181.437 183.92C179.852 185.979 177.752 187.447 175.495 188.688C169.546 191.959 143.154 202.339 137.004 203.1C127.549 204.27 121.229 197.39 115.156 191.422C111.943 188.266 108.672 185.155 105.601 181.859C101.856 177.838 98.3503 173.39 93.9776 170.026C89.6945 166.73 86.8085 167.235 81.7451 167.908C75.5235 172.242 69.1884 178.315 65.6691 185.099ZM83.0818 91.6442C76.8922 92.0622 71.5677 94.0697 67.3957 98.8346C63.6327 103.132 61.8703 108.942 62.2906 114.61Q62.3228 115.108 62.3802 115.605Q62.4376 116.101 62.52 116.594Q62.6024 117.086 62.7096 117.574Q62.8169 118.062 62.9486 118.544Q63.0804 119.026 63.2363 119.5Q63.3923 119.975 63.5721 120.441Q63.7518 120.907 63.9549 121.363Q64.158 121.82 64.384 122.265Q64.6099 122.711 64.858 123.144Q65.1062 123.578 65.376 123.998Q65.6458 124.419 65.9365 124.825Q66.2272 125.231 66.5381 125.623Q66.8489 126.014 67.1792 126.389Q67.5095 126.763 67.8583 127.121Q68.2071 127.479 68.5735 127.819Q68.9399 128.158 69.3231 128.479C73.63 132.151 77.9658 133.35 83.4599 133.823C90.0261 133.148 95.3523 130.542 99.5941 125.306C102.99 121.114 104.464 115.394 103.86 110.062Q103.8 109.543 103.715 109.027Q103.63 108.511 103.519 108Q103.408 107.49 103.272 106.985Q103.136 106.48 102.975 105.983Q102.814 105.486 102.628 104.997Q102.443 104.508 102.233 104.029Q102.023 103.551 101.79 103.083Q101.557 102.615 101.301 102.159Q101.045 101.703 100.766 101.261Q100.488 100.819 100.187 100.391Q99.8871 99.9627 99.5659 99.5501Q99.2448 99.1376 98.9035 98.7415Q98.5623 98.3454 98.2017 97.9668Q97.8412 97.5881 97.4622 97.2279Q97.0833 96.8676 96.6869 96.5266Q96.2906 96.1857 95.8777 95.8648C92.195 92.9683 87.7042 91.7681 83.0818 91.6442Z"/>
	<path fill="white" d="M90.3878 102.147C92.334 102.069 94.7713 101.761 96.4288 102.969C97.1812 103.517 97.6692 104.233 97.8065 105.161C98.0462 106.782 97.1408 108.49 96.2166 109.762C94.0602 112.73 84.405 123.96 80.8072 124.379C78.6362 124.632 76.5788 122.912 75.0002 121.671C72.5601 119.372 69.0678 116.572 68.7834 112.993C68.7036 111.987 68.8837 110.953 69.5922 110.193C70.2819 109.454 71.2975 109.201 72.2801 109.199C75.512 109.19 77.365 111.258 79.4996 113.331C82.946 109.686 86.3112 105.025 90.3878 102.147Z"/>
</svg>
